<svg width="202" height="40" viewBox="0 0 1513 236" fill="none" xmlns="http://www.w3.org/2000/svg">
<path d="M91.0345 0.639566L79.33 0L63.0739 1.9187L41.6158 10.2331L29.2611 18.5474L11.0542 39.6531L2.60099 58.8401L0 72.9106L0.650246 94.0163L5.85222 110.005H85.1823L98.8374 139.425L131.35 62.6775L165.163 139.425L177.517 110.005H258.148L264 86.3415L261.399 59.4797L252.946 39.6531L233.438 17.2683L213.931 5.7561L195.074 0.639566L170.365 1.27913L149.557 8.31436L131.35 21.7453L122.897 13.4309L109.241 5.7561L91.0345 0.639566Z" fill="#01ABAA"/>
<path d="M162.562 157.333L130.7 86.981L102.739 154.136L99.4877 157.333L94.2857 156.054L79.33 120.238H11.0542L12.3547 125.995L18.8571 135.588L117.044 230.883L126.148 236H137.202L146.956 230.883L242.542 138.786L253.596 121.518L182.719 120.878L169.064 155.415L162.562 157.333Z" fill="#01ABAA"/>
<path d="M89.734 11.5122L76.729 10.8726L61.7734 13.4309L43.5665 21.7453L22.7586 41.5718L16.2561 53.084L11.7044 67.794L11.0542 88.2602L13.6552 99.1328H86.4827L94.9359 104.249L98.8374 111.924L122.246 54.3632L128.749 47.9675H134.601L139.153 51.8049L163.862 111.924L169.064 102.97L177.517 99.1328H249.695L252.946 86.3415V73.5501L248.394 55.6423L235.389 34.5366L217.833 19.8266L203.527 13.4309L189.222 10.8726L168.414 12.7913L149.557 21.1057L137.202 31.9783L129.399 33.897L117.695 23.664L103.389 15.3496L89.734 11.5122Z" fill="#52D4CF"/>
<path d="M151.507 160.531L130.699 113.843L111.192 160.531L107.941 164.369L100.788 167.566L91.6847 166.927L85.1823 161.81L72.8276 131.111H31.8621L129.399 225.127L136.552 224.488L144.355 218.092L232.788 132.39L189.872 131.111L176.867 162.45L172.315 166.287L161.911 167.566L154.759 164.369L151.507 160.531Z" fill="#52D4CF"/>
<path d="M200.926 27.5014L183.369 26.2222L175.567 31.9783L174.916 40.9323L165.813 41.5718L161.261 44.7697L159.31 49.2466V64.5962L161.261 68.4336L166.463 71.6314H174.266L175.567 79.9458L180.118 85.0623L197.675 86.3415L204.828 81.2249L206.778 71.6314H215.232L221.734 65.2358L220.434 46.0488L215.232 41.5718L206.128 40.9323L205.478 32.6179L200.926 27.5014Z" fill="#01ABAA"/>
<path d="M193.123 35.8157H187.271L184.67 38.374V50.5257L170.365 51.1653L169.064 59.4797L171.015 62.0379H184.67V74.1897L187.271 76.748H193.773L195.724 74.8293L196.374 62.0379H210.03L211.98 58.2005L210.03 51.1653H196.374L195.724 37.7344L193.123 35.8157Z" fill="#EAFCFE"/>
<path d="M304.34 191V63.38H327.56L376.52 137.36H365.54L414.32 63.38H437.54V191H405.68V116.66L410.72 118.1L381.38 162.2H360.5L331.34 118.1L336.38 116.66V191H304.34ZM463.858 191V63.38H496.078V191H463.858ZM489.418 191V163.82H558.538V191H489.418ZM489.418 139.16V112.7H552.058V139.16H489.418ZM489.418 90.56V63.38H557.458V90.56H489.418ZM602.09 191V163.28H632.69C639.89 163.28 646.13 161.9 651.41 159.14C656.81 156.38 660.95 152.3 663.83 146.9C666.71 141.38 668.15 134.72 668.15 126.92C668.15 119.24 666.65 112.76 663.65 107.48C660.77 102.08 656.69 98 651.41 95.24C646.13 92.48 639.89 91.1 632.69 91.1H600.65V63.38H632.87C642.71 63.38 651.77 64.94 660.05 68.06C668.33 71.06 675.53 75.38 681.65 81.02C687.77 86.66 692.51 93.38 695.87 101.18C699.35 108.98 701.09 117.62 701.09 127.1C701.09 136.7 699.35 145.4 695.87 153.2C692.51 161 687.77 167.72 681.65 173.36C675.53 179 668.33 183.38 660.05 186.5C651.89 189.5 642.95 191 633.23 191H602.09ZM580.31 191V63.38H612.53V191H580.31ZM782.763 192.98C773.043 192.98 764.043 191.36 755.763 188.12C747.483 184.76 740.223 180.14 733.983 174.26C727.863 168.26 723.063 161.24 719.583 153.2C716.223 145.16 714.543 136.46 714.543 127.1C714.543 117.62 716.223 108.92 719.583 101C723.063 92.96 727.863 86 733.983 80.12C740.223 74.24 747.423 69.62 755.583 66.26C763.863 62.9 772.803 61.22 782.403 61.22C792.483 61.22 801.543 62.84 809.583 66.08C817.623 69.2 824.703 73.58 830.823 79.22L809.223 100.82C806.223 97.46 802.503 94.82 798.063 92.9C793.623 90.98 788.403 90.02 782.403 90.02C777.243 90.02 772.503 90.86 768.183 92.54C763.983 94.22 760.323 96.74 757.203 100.1C754.083 103.34 751.623 107.24 749.823 111.8C748.143 116.36 747.303 121.46 747.303 127.1C747.303 132.74 748.143 137.84 749.823 142.4C751.623 146.96 754.083 150.92 757.203 154.28C760.323 157.52 763.983 160.04 768.183 161.84C772.503 163.52 777.243 164.36 782.403 164.36C788.403 164.36 793.683 163.46 798.243 161.66C802.803 159.74 806.703 157.04 809.943 153.56L831.543 175.16C825.303 180.8 818.223 185.18 810.303 188.3C802.503 191.42 793.323 192.98 782.763 192.98ZM906.074 193.34C896.234 193.34 887.174 191.66 878.894 188.3C870.614 184.94 863.354 180.26 857.114 174.26C850.994 168.26 846.194 161.24 842.714 153.2C839.234 145.04 837.494 136.28 837.494 126.92C837.494 117.56 839.174 108.92 842.534 101C846.014 92.96 850.814 85.94 856.934 79.94C863.054 73.94 870.254 69.32 878.534 66.08C886.814 62.72 895.874 61.04 905.714 61.04C915.554 61.04 924.614 62.72 932.894 66.08C941.174 69.32 948.374 73.94 954.494 79.94C960.614 85.94 965.354 92.96 968.714 101C972.194 109.04 973.934 117.74 973.934 127.1C973.934 136.46 972.194 145.16 968.714 153.2C965.354 161.24 960.614 168.32 954.494 174.44C948.374 180.44 941.174 185.12 932.894 188.48C924.734 191.72 915.794 193.34 906.074 193.34ZM905.714 164.54C912.914 164.54 919.154 162.98 924.434 159.86C929.714 156.74 933.794 152.36 936.674 146.72C939.554 141.08 940.994 134.48 940.994 126.92C940.994 121.4 940.154 116.36 938.474 111.8C936.914 107.24 934.574 103.34 931.454 100.1C928.334 96.74 924.614 94.16 920.294 92.36C915.974 90.56 911.114 89.66 905.714 89.66C898.514 89.66 892.274 91.22 886.994 94.34C881.714 97.34 877.634 101.66 874.754 107.3C871.874 112.94 870.434 119.48 870.434 126.92C870.434 132.68 871.214 137.9 872.774 142.58C874.454 147.14 876.854 151.1 879.974 154.46C883.094 157.7 886.814 160.22 891.134 162.02C895.454 163.7 900.314 164.54 905.714 164.54ZM1019.21 139.34V116.3H1043.51C1048.79 116.3 1052.81 115.04 1055.57 112.52C1058.45 109.88 1059.89 106.34 1059.89 101.9C1059.89 97.58 1058.45 94.1 1055.57 91.46C1052.81 88.7 1048.79 87.32 1043.51 87.32H1019.21V63.38H1048.01C1056.65 63.38 1064.21 65 1070.69 68.24C1077.29 71.48 1082.45 75.92 1086.17 81.56C1089.89 87.2 1091.75 93.8 1091.75 101.36C1091.75 108.92 1089.83 115.58 1085.99 121.34C1082.27 126.98 1077.05 131.42 1070.33 134.66C1063.61 137.78 1055.75 139.34 1046.75 139.34H1019.21ZM993.649 191V63.38H1025.87V191H993.649ZM1062.77 191L1025.69 136.28L1054.67 129.26L1100.03 191H1062.77ZM1135.92 191V163.28H1166.52C1173.72 163.28 1179.96 161.9 1185.24 159.14C1190.64 156.38 1194.78 152.3 1197.66 146.9C1200.54 141.38 1201.98 134.72 1201.98 126.92C1201.98 119.24 1200.48 112.76 1197.48 107.48C1194.6 102.08 1190.52 98 1185.24 95.24C1179.96 92.48 1173.72 91.1 1166.52 91.1H1134.48V63.38H1166.7C1176.54 63.38 1185.6 64.94 1193.88 68.06C1202.16 71.06 1209.36 75.38 1215.48 81.02C1221.6 86.66 1226.34 93.38 1229.7 101.18C1233.18 108.98 1234.92 117.62 1234.92 127.1C1234.92 136.7 1233.18 145.4 1229.7 153.2C1226.34 161 1221.6 167.72 1215.48 173.36C1209.36 179 1202.16 183.38 1193.88 186.5C1185.72 189.5 1176.78 191 1167.06 191H1135.92ZM1114.14 191V63.38H1146.36V191H1114.14ZM1254.68 191V63.38H1286.9V191H1254.68ZM1280.24 191V163.82H1349.36V191H1280.24ZM1280.24 139.16V112.7H1342.88V139.16H1280.24ZM1280.24 90.56V63.38H1348.28V90.56H1280.24ZM1396.69 139.34V116.3H1420.99C1426.27 116.3 1430.29 115.04 1433.05 112.52C1435.93 109.88 1437.37 106.34 1437.37 101.9C1437.37 97.58 1435.93 94.1 1433.05 91.46C1430.29 88.7 1426.27 87.32 1420.99 87.32H1396.69V63.38H1425.49C1434.13 63.38 1441.69 65 1448.17 68.24C1454.77 71.48 1459.93 75.92 1463.65 81.56C1467.37 87.2 1469.23 93.8 1469.23 101.36C1469.23 108.92 1467.31 115.58 1463.47 121.34C1459.75 126.98 1454.53 131.42 1447.81 134.66C1441.09 137.78 1433.23 139.34 1424.23 139.34H1396.69ZM1371.13 191V63.38H1403.35V191H1371.13ZM1440.25 191L1403.17 136.28L1432.15 129.26L1477.51 191H1440.25Z" fill="#01ABAA"/>
</svg>
